<?xml version="1.0" standalone="no"?>
<!DOCTYPE svg PUBLIC "-//W3C//DTD SVG 20010904//EN"
 "http://www.w3.org/TR/2001/REC-SVG-20010904/DTD/svg10.dtd">
<svg version="1.0" xmlns="http://www.w3.org/2000/svg"
 width="512.000000pt" height="512.000000pt" viewBox="0 0 512.000000 512.000000"
 preserveAspectRatio="xMidYMid meet">
<metadata>
Created by potrace 1.11, written by Peter Selinger 2001-2013
</metadata>
<g transform="translate(0.000000,512.000000) scale(0.100000,-0.100000)"
fill="#000000" stroke="none">
<path d="M2410 4407 c-3 -3 -37 -7 -76 -10 -120 -11 -309 -55 -439 -104 -443
-166 -797 -481 -1000 -888 -75 -152 -126 -293 -151 -422 -12 -66 -15 -83 -22
-138 -9 -76 -9 -374 0 -440 36 -259 118 -484 262 -715 74 -118 86 -162 66
-249 -8 -31 -15 -65 -17 -75 -2 -11 -11 -47 -19 -80 -9 -34 -17 -68 -19 -76
-6 -26 -75 -322 -89 -383 -14 -54 -13 -60 4 -77 17 -17 22 -17 62 -4 52 18
145 52 173 65 11 5 130 50 265 100 299 111 307 112 485 52 183 -62 250 -80
370 -98 17 -3 55 -8 86 -13 128 -19 405 -9 575 22 74 14 226 57 312 90 434
166 777 471 987 880 45 88 117 273 130 334 2 9 9 40 15 67 17 74 19 82 26 144
3 31 8 65 10 76 6 30 6 283 0 340 -36 322 -161 627 -364 890 -85 109 -266 283
-382 364 -91 65 -301 181 -395 218 -41 17 -211 72 -238 77 -210 44 -242 48
-422 52 -105 3 -193 3 -195 1z"/>
</g>
</svg>
